<svg xmlns="http://www.w3.org/2000/svg" viewBox="0 0 512 512">
  <defs>
    <linearGradient id="grad1" x1="0%" y1="0%" x2="100%" y2="100%">
      <stop offset="0%" style="stop-color:#10b981;stop-opacity:1" />
      <stop offset="100%" style="stop-color:#059669;stop-opacity:1" />
    </linearGradient>
    <filter id="shadow" x="-20%" y="-20%" width="140%" height="140%">
      <feDropShadow dx="2" dy="4" stdDeviation="4" flood-color="#000000" flood-opacity="0.2"/>
    </filter>
  </defs>
  <rect x="56" y="56" width="400" height="400" rx="100" fill="url(#grad1)" filter="url(#shadow)"/>
  <path d="M352 240H272V160C272 151.2 264.8 144 256 144C247.2 144 240 151.2 240 160V240H160C151.2 240 144 247.2 144 256C144 264.8 151.2 272 160 272H240V352C240 360.8 247.2 368 256 368C264.8 368 272 360.8 272 352V272H352C360.8 272 368 264.8 368 256C368 247.2 360.8 240 352 240Z" fill="white"/>
  <path d="M256 112C176.5 112 112 176.5 112 256C112 335.5 176.5 400 256 400C335.5 400 400 335.5 400 256C400 176.5 335.5 112 256 112ZM256 368C194.1 368 144 317.9 144 256C144 194.1 194.1 144 256 144C317.9 144 368 194.1 368 256C368 317.9 317.9 368 256 368Z" fill="white" opacity="0.3"/>
</svg>
